# xmcd
#
# Track frame offsets: 
#        150
#        14955
#        26677
#        44375
#        67212
#        84530
#        102560
#        117635
#        131900
#        152690
#        170725
#
# Disc length: 2537 seconds
#
# Revision: 3
# Processed by: cddbd v1.5.2PL0 Copyright (c) Steve Scherf et al.
# Submitted via: ExactAudioCopy v1.0b3
#
DISCID=a809e70b
DTITLE=Mary-Chapin Carpenter - Shooting Straight In The Dark
DYEAR=1990
DGENRE=Country
TTITLE0=Going Out Tonight
TTITLE1=Right Now
TTITLE2=The More Things Change
TTITLE3=When She's Gone
TTITLE4=Middle Ground
TTITLE5=Can't Take Love for Granted
TTITLE6=Down at the Twist and Shout
TTITLE7=Halley Came to Jackson
TTITLE8=What You Didn't Say
TTITLE9=You Win Again
TTITLE10=The Moon and St. Christopher
EXTD=
EXTT0=
EXTT1=
EXTT2=
EXTT3=
EXTT4=
EXTT5=
EXTT6=
EXTT7=
EXTT8=
EXTT9=
EXTT10=
PLAYORDER=
